<svg width="100" height="100" viewBox="0 0 100 100" fill="none" xmlns="http://www.w3.org/2000/svg">
<g clip-path="url(#clip0_1_2)">
<path d="M76.1335 55.6948C73.6526 66.435 68.2104 75.219 61.6519 80.7979C55.0932 86.3771 47.7146 88.5582 40.9343 86.992C34.154 85.4258 28.4795 80.2295 25.0322 72.3391C21.585 64.4489 20.5467 54.1679 23.0276 43.4278C25.5085 32.6876 30.9507 23.9036 37.5092 18.3246C44.0679 12.7455 51.4465 10.5644 58.2268 12.1306C65.007 13.6968 70.6815 18.893 74.1289 26.7835C77.576 34.6737 78.6144 44.9547 76.1335 55.6948Z" stroke="url(#paint0_linear_1_2)" stroke-width="10"/>
<path d="M45.0296 66.0948C32.1319 62.6388 21.367 57.0556 14.3649 51.0481C7.05873 44.7798 5.14676 39.3161 6.09414 35.7804C7.04152 32.2447 11.4292 28.469 20.8906 26.6935C29.9584 24.9919 42.0727 25.5392 54.9704 28.9951C67.8681 32.451 78.633 38.0343 85.6351 44.0418C92.9413 50.3101 94.8532 55.7738 93.9059 59.3095C92.9585 62.8452 88.5708 66.6209 79.1094 68.3963C70.0416 70.0979 57.9273 69.5507 45.0296 66.0948Z" stroke="url(#paint1_linear_1_2)" stroke-width="10"/>
</g>
<defs>
<linearGradient id="paint0_linear_1_2" x1="59.5043" y1="25.3722" x2="82.4529" y2="43.359" gradientUnits="userSpaceOnUse">
<stop/>
<stop offset="1" stop-color="#282828"/>
</linearGradient>
<linearGradient id="paint1_linear_1_2" x1="68.9862" y1="40.6825" x2="81.8871" y2="68.2534" gradientUnits="userSpaceOnUse">
<stop/>
<stop offset="1" stop-color="#282828"/>
</linearGradient>
<clipPath id="clip0_1_2">
<rect width="100" height="100" fill="white"/>
</clipPath>
</defs>
</svg>
