<svg width="239" height="76" viewBox="0 0 239 76" fill="none" xmlns="http://www.w3.org/2000/svg">
<g clip-path="url(#clip0_1_19)">
<path d="M123.832 56.896C120.211 56.896 117.019 56.0747 114.256 54.432C111.493 52.752 109.328 50.3813 107.76 47.32C106.192 44.2213 105.408 40.5067 105.408 36.176C105.408 31.92 106.173 28.2427 107.704 25.144C109.235 22.008 111.381 19.6 114.144 17.92C116.907 16.2027 120.155 15.344 123.888 15.344C128.965 15.344 132.904 16.6133 135.704 19.152C138.504 21.6533 140.333 25.1627 141.192 29.68L133.576 30.072C133.091 27.4587 132.045 25.4053 130.44 23.912C128.835 22.4187 126.651 21.672 123.888 21.672C121.648 21.672 119.707 22.2693 118.064 23.464C116.421 24.6587 115.152 26.3387 114.256 28.504C113.36 30.6693 112.912 33.2267 112.912 36.176C112.912 39.1627 113.36 41.7387 114.256 43.904C115.189 46.032 116.477 47.6747 118.12 48.832C119.763 49.9893 121.667 50.568 123.832 50.568C126.781 50.568 129.059 49.7653 130.664 48.16C132.307 46.5173 133.352 44.2773 133.8 41.44L141.416 41.832C140.893 44.9307 139.885 47.6187 138.392 49.896C136.899 52.136 134.92 53.872 132.456 55.104C130.029 56.2987 127.155 56.896 123.832 56.896ZM145.831 56V26.096H152.551L152.831 34.384L152.215 34.272C152.663 31.3973 153.503 29.3253 154.735 28.056C156.005 26.7493 157.722 26.096 159.887 26.096H162.631V32.256H159.831C158.301 32.256 157.031 32.48 156.023 32.928C155.015 33.376 154.25 34.0853 153.727 35.056C153.242 35.9893 152.999 37.2213 152.999 38.752V56H145.831ZM166.149 56V26.096H173.317V56H166.149ZM166.037 22.12V15.736H173.485V22.12H166.037ZM191.673 56.672C188.724 56.672 186.241 56.2427 184.225 55.384C182.246 54.5253 180.716 53.3307 179.633 51.8C178.55 50.2693 177.934 48.5333 177.785 46.592L185.121 46.256C185.382 47.824 186.036 49.0373 187.081 49.896C188.126 50.7547 189.676 51.184 191.729 51.184C193.409 51.184 194.716 50.9227 195.649 50.4C196.62 49.84 197.105 48.9813 197.105 47.824C197.105 47.152 196.937 46.592 196.601 46.144C196.265 45.696 195.63 45.304 194.697 44.968C193.764 44.632 192.382 44.296 190.553 43.96C187.492 43.4373 185.084 42.8027 183.329 42.056C181.574 41.272 180.324 40.3013 179.577 39.144C178.868 37.9867 178.513 36.5493 178.513 34.832C178.513 32.032 179.577 29.7733 181.705 28.056C183.87 26.3013 187.025 25.424 191.169 25.424C193.857 25.424 196.116 25.872 197.945 26.768C199.774 27.6267 201.193 28.8213 202.201 30.352C203.246 31.8453 203.9 33.5627 204.161 35.504L196.937 35.84C196.75 34.832 196.414 33.9547 195.929 33.208C195.444 32.4613 194.79 31.9013 193.969 31.528C193.148 31.1173 192.177 30.912 191.057 30.912C189.377 30.912 188.108 31.248 187.249 31.92C186.39 32.592 185.961 33.488 185.961 34.608C185.961 35.392 186.148 36.0453 186.521 36.568C186.932 37.0907 187.585 37.52 188.481 37.856C189.377 38.1547 190.572 38.4347 192.065 38.696C195.201 39.1813 197.665 39.816 199.457 40.6C201.286 41.3467 202.574 42.3173 203.321 43.512C204.105 44.6693 204.497 46.0693 204.497 47.712C204.497 49.616 203.956 51.24 202.873 52.584C201.828 53.928 200.334 54.9547 198.393 55.664C196.489 56.336 194.249 56.672 191.673 56.672ZM221.963 56.672C219.014 56.672 216.419 56.0373 214.179 54.768C211.977 53.4613 210.259 51.632 209.027 49.28C207.833 46.928 207.235 44.184 207.235 41.048C207.235 37.8747 207.833 35.1307 209.027 32.816C210.259 30.464 211.977 28.6533 214.179 27.384C216.419 26.0773 219.014 25.424 221.963 25.424C224.913 25.424 227.489 26.0773 229.691 27.384C231.894 28.6533 233.593 30.464 234.787 32.816C236.019 35.1307 236.635 37.8747 236.635 41.048C236.635 44.184 236.019 46.928 234.787 49.28C233.593 51.632 231.894 53.4613 229.691 54.768C227.489 56.0373 224.913 56.672 221.963 56.672ZM221.963 50.848C224.278 50.848 226.051 49.9893 227.283 48.272C228.553 46.5547 229.187 44.1467 229.187 41.048C229.187 37.9867 228.553 35.5973 227.283 33.88C226.051 32.1253 224.278 31.248 221.963 31.248C219.649 31.248 217.857 32.1253 216.587 33.88C215.318 35.5973 214.683 37.9867 214.683 41.048C214.683 44.1467 215.318 46.5547 216.587 48.272C217.857 49.9893 219.649 50.848 221.963 50.848Z" fill="#141414"/>
<path d="M59.8443 43.8265C57.8921 52.278 53.6096 59.1902 48.4487 63.5803C43.2876 67.9705 37.4813 69.6868 32.1459 68.4544C26.8105 67.2219 22.3452 63.133 19.6325 56.9239C16.9199 50.7151 16.1028 42.625 18.055 34.1735C20.0073 25.722 24.2898 18.8098 29.4506 14.4197C34.6117 10.0295 40.418 8.31316 45.7534 9.54561C51.0888 10.7781 55.5541 14.867 58.2668 21.0761C60.9794 27.2849 61.7965 35.375 59.8443 43.8265Z" stroke="url(#paint0_linear_1_19)" stroke-width="7.86904"/>
<path d="M35.3685 52.0103C25.2192 49.2908 16.7483 44.8973 11.2383 40.17C5.48906 35.2374 3.98453 30.938 4.73003 28.1557C5.47553 25.3735 8.9282 22.4024 16.3735 21.0052C23.5089 19.6663 33.0417 20.0969 43.191 22.8164C53.3403 25.5358 61.8112 29.9293 67.3212 34.6566C73.0704 39.5892 74.575 43.8886 73.8295 46.6709C73.084 49.4531 69.6313 52.4243 62.186 53.8214C55.0505 55.1604 45.5178 54.7298 35.3685 52.0103Z" stroke="url(#paint1_linear_1_19)" stroke-width="7.86904"/>
</g>
<defs>
<linearGradient id="paint0_linear_1_19" x1="46.7587" y1="19.9655" x2="64.8171" y2="34.1194" gradientUnits="userSpaceOnUse">
<stop/>
<stop offset="1" stop-color="#282828"/>
</linearGradient>
<linearGradient id="paint1_linear_1_19" x1="54.2201" y1="32.0132" x2="64.3718" y2="53.7089" gradientUnits="userSpaceOnUse">
<stop/>
<stop offset="1" stop-color="#282828"/>
</linearGradient>
<clipPath id="clip0_1_19">
<rect width="239" height="76" fill="white"/>
</clipPath>
</defs>
</svg>
