<svg width="100" height="100" viewBox="0 0 100 100" fill="none" xmlns="http://www.w3.org/2000/svg">
<g clip-path="url(#clip0_1_2)">
<path d="M77.3793 55.9826C74.8428 66.9635 69.2681 75.9979 62.4804 81.7719C55.6924 87.546 47.912 89.9161 40.6465 88.2378C33.3811 86.5595 27.4283 81.0172 23.8606 72.851C20.2929 64.6849 19.2453 54.1209 21.7818 43.14C24.3183 32.1591 29.893 23.1247 36.6807 17.3507C43.4686 11.5766 51.249 9.20652 58.5145 10.8848C65.78 12.5631 71.7327 18.1054 75.3005 26.2716C78.8682 34.4377 79.9158 45.0017 77.3793 55.9826Z" stroke="url(#paint0_linear_1_2)" stroke-width="7.4428"/>
<path d="M44.6987 67.3298C31.6577 63.8355 20.7092 58.176 13.5323 52.0185C6.1291 45.6669 3.71162 39.7319 4.8591 35.4495C6.00659 31.167 11.0677 27.2359 20.6548 25.4369C29.949 23.6928 42.2604 24.2657 55.3013 27.7601C68.3423 31.2544 79.2908 36.9139 86.4677 43.0714C93.8709 49.423 96.2884 55.3579 95.1409 59.6404C93.9934 63.9229 88.9323 67.854 79.3452 69.653C70.051 71.3971 57.7396 70.8241 44.6987 67.3298Z" stroke="url(#paint1_linear_1_2)" stroke-width="7.4428"/>
</g>
<defs>
<linearGradient id="paint0_linear_1_2" x1="59.5043" y1="25.3722" x2="82.4529" y2="43.359" gradientUnits="userSpaceOnUse">
<stop/>
<stop offset="1" stop-color="#282828"/>
</linearGradient>
<linearGradient id="paint1_linear_1_2" x1="68.9862" y1="40.6825" x2="81.8871" y2="68.2534" gradientUnits="userSpaceOnUse">
<stop/>
<stop offset="1" stop-color="#282828"/>
</linearGradient>
<clipPath id="clip0_1_2">
<rect width="100" height="100" fill="white"/>
</clipPath>
</defs>
</svg>
